# xmcd
#
# Track frame offsets: 
#        150
#        85929
#        99047
#        105628
#        128905
#        147154
#        194499
#
# Disc length: 3013 seconds
#
# Revision: 0
# Processed by: cddbd v1.4PL0 Copyright (c) Steve Scherf et al.
# Submitted via: ExactAudioCopy v0.90a11
#
DISCID=560bc307
DTITLE=Phish - New Years Eve 1999 Disc#2
DYEAR=1900
DGENRE=
TTITLE0=Soam
TTITLE1=Catapult
TTITLE2=Croud Noise
TTITLE3=Gbott
TTITLE4=Harn
TTITLE5=Guyute
TTITLE6=After Midnight
EXTD=
EXTT0=
EXTT1=
EXTT2=
EXTT3=
EXTT4=
EXTT5=
EXTT6=
PLAYORDER=
